# xmcd CD database file
#
# Track frame offsets:
#	150
#	15761
#	35676
#	51781
#	69913
#	82722
#	93513
#	111745
#	127599
#	140220
#	156936
#	173220
#
# Disc length: 2523 seconds
#
# Revision: 0
# Processed by: cddbd v1.5.2PL0 Copyright (c) Steve Scherf et al.
# Submitted via: CDex 1.70beta2
#
DISCID=9509d90c
DTITLE=Arlon Bennett - Summer's Voice
DYEAR=2007
DGENRE=Country
TTITLE0=Forgive Me
TTITLE1=Bandana Man
TTITLE2=Be the Change
TTITLE3=Just Like Them
TTITLE4=Red Light Kiss
TTITLE5=Straight A's in Love
TTITLE6=Small Body Blonde
TTITLE7=Summer's Voice
TTITLE8=Fender Bender Baby
TTITLE9=Even if You Never Said a Prayer
TTITLE10=Where the Goodbyes Go
TTITLE11=Be the Change (remix)
EXTD=YEAR: 2007
EXTT0=
EXTT1=
EXTT2=
EXTT3=
EXTT4=
EXTT5=
EXTT6=
EXTT7=
EXTT8=
EXTT9=
EXTT10=
EXTT11=
PLAYORDER=
